<?xml version="1.0" encoding="utf-8"?>
<!-- Generator: Adobe Illustrator 27.5.0, SVG Export Plug-In . SVG Version: 6.00 Build 0)  -->
<svg version="1.1" id="BASE" xmlns="http://www.w3.org/2000/svg" xmlns:xlink="http://www.w3.org/1999/xlink" x="0px" y="0px"
	 viewBox="0 0 2122 2122" style="enable-background:new 0 0 2122 2122;" xml:space="preserve">
<g>
	<g>
		<path style="fill:#CB241A;" d="M1824.08,643.966c-39.594-54.225-89.844-94.643-145.78-127.058
			c7.131-11.11,11.223-24.089,9.661-37.074c-0.596-4.956-33.863,5.272-56.072,12.474c-23.591-11.474-47.885-21.905-72.561-31.672
			c-52.153-20.642-105.861-37.201-160.507-49.683c25.277-35.025,46.147-72.991,58.745-114.688
			c4.329-14.331,31.947-116.225,1.98-114.599c-2.871,0.157-5.104,2.469-6.94,4.682c-14.461,17.422-23.882,38.35-34.668,58.255
			c-28.514,52.614-72.039,110.236-125.258,147.366c-38.31-4.992-76.879-8.049-115.507-9.166c-1.365-0.039-2.731-0.076-4.099-0.111
			c0.961-1.997,2.009-3.942,3.234-5.772c4.664-6.964,11.671-11.939,17.772-17.685c16.743-15.766,31.955-40.139,18.278-62.035
			c-27.587-44.161-71.143-89.678-120.025-110.225c-48.997-20.595-54.17,64.257-51.54,90.05c0.251,2.466,0.553,4.953,0.857,7.449
			c-0.531,0.773-0.741,1.742-0.369,2.8c0.411,1.17,0.778,2.317,1.107,3.444c1.228,11.107,1.742,22.215-2.56,32.332
			c-2.463,5.792-6.419,10.952-8.293,16.935c-0.71,1.111-1.441,2.235-2.189,3.375c-6.589,10.05-8.992,16.258-8.491,28.15
			c0.245,5.807,0.667,11.181,0.912,16.323c-8.48,0.785-16.97,1.653-25.466,2.605c-31.027-16.634-59.731-37.352-84.665-60.797
			c-26.195-24.631-54.437-57.056-72.612-88.114c-3.375-5.768-6.44-11.712-9.502-17.653l-36.504-70.815
			c-2.298-4.459-4.997-9.286-9.704-11.022c-6.078-2.242-13.022,1.992-15.997,7.747c-2.976,5.754-2.964,12.54-2.747,19.016
			c2.509,74.626,23.762,148.551,61.272,213.115c6.371,10.968,13.846,22.809,22.472,33.745c-19.9,4.588-39.713,9.659-59.396,15.216
			c-0.802-0.267-1.605-0.54-2.405-0.822c-27.699-9.774-54.999-21.482-81.341-34.473c-56.409-27.819-105.909-67.069-148.903-112.843
			c-4.25-4.523-8.602-9.24-14.291-11.719c-5.69-2.479-13.151-2.076-17.161,2.661c-4.56,5.388-2.902,13.49-0.83,20.238
			c18.181,59.238,49.257,114.396,90.282,160.817c8.621,9.755,18.387,19.013,28.692,27.745
			c-187.63,80.893-349.381,212.351-435.904,400.08c-125.268,271.792-50.747,587.646,135.331,809.774
			c0.029,0.035,0.059,0.07,0.089,0.105c2.892,3.451,5.81,6.879,8.755,10.284c0.238,0.275,0.475,0.549,0.713,0.824
			c0.43,0.497,0.863,0.994,1.294,1.49c0.261,0.299,0.523,0.598,0.783,0.896c0.418,0.478,0.834,0.956,1.253,1.433
			c0.269,0.306,0.538,0.612,0.808,0.917c0.734,0.835,1.47,1.668,2.208,2.5c0.341,0.385,0.682,0.77,1.023,1.153
			c0.321,0.361,0.643,0.721,0.965,1.081c0.412,0.461,0.824,0.922,1.237,1.383c0.311,0.346,0.621,0.692,0.933,1.037
			c0.412,0.458,0.826,0.917,1.24,1.375c0.321,0.355,0.641,0.71,0.962,1.065c0.694,0.766,1.391,1.531,2.088,2.294
			c0.066,0.072,0.133,0.146,0.199,0.219c0.623,0.681,1.246,1.361,1.871,2.04c0.058,0.064,0.117,0.127,0.176,0.191
			c1.873,2.034,3.756,4.06,5.65,6.077c0.14,0.149,0.279,0.298,0.421,0.448c0.544,0.579,1.09,1.157,1.637,1.736
			c0.21,0.222,0.42,0.445,0.631,0.667c0.508,0.537,1.016,1.073,1.526,1.607c0.27,0.284,0.542,0.567,0.812,0.851
			c0.479,0.502,0.958,1.004,1.44,1.506c0.251,0.261,0.503,0.522,0.754,0.784c0.827,0.86,1.658,1.719,2.489,2.575
			c0.395,0.406,0.788,0.814,1.184,1.219c0.364,0.374,0.731,0.748,1.096,1.123c0.442,0.452,0.886,0.903,1.329,1.355
			c0.346,0.353,0.693,0.705,1.04,1.058c0.488,0.495,0.977,0.989,1.465,1.483c0.285,0.287,0.57,0.576,0.856,0.864
			c0.792,0.798,1.586,1.595,2.381,2.39c0.044,0.045,0.09,0.09,0.135,0.135c0.715,0.714,1.431,1.427,2.149,2.138
			c0.033,0.032,0.065,0.065,0.098,0.097c2.863,2.837,5.745,5.654,8.648,8.449c0.176,0.169,0.351,0.337,0.526,0.506
			c0.591,0.568,1.184,1.137,1.776,1.703c0.245,0.234,0.489,0.467,0.733,0.699c0.575,0.548,1.15,1.096,1.727,1.643
			c0.235,0.223,0.47,0.444,0.706,0.667c1.181,1.118,2.365,2.232,3.553,3.342c0.172,0.161,0.343,0.323,0.515,0.484
			c0.436,0.407,0.873,0.812,1.311,1.218c0.426,0.397,0.852,0.794,1.281,1.19c0.415,0.385,0.832,0.769,1.247,1.152
			c0.485,0.447,0.971,0.893,1.457,1.339c0.381,0.35,0.764,0.7,1.146,1.05c0.525,0.48,1.051,0.959,1.577,1.438
			c0.338,0.308,0.677,0.617,1.016,0.925c0.867,0.785,1.734,1.569,2.604,2.351c0.046,0.042,0.094,0.084,0.14,0.125
			c0.949,0.854,1.901,1.704,2.855,2.553c0.206,0.184,0.413,0.368,0.62,0.551c0.908,0.808,1.819,1.613,2.73,2.416
			c0.21,0.185,0.419,0.369,0.629,0.553c0.934,0.821,1.87,1.642,2.808,2.458c0.135,0.117,0.27,0.234,0.406,0.352
			c3.013,2.62,6.045,5.219,9.095,7.795c1.017,0.859,2.035,1.715,3.056,2.569c0.351,0.293,0.7,0.588,1.052,0.88
			c0.73,0.609,1.462,1.217,2.195,1.823c0.494,0.409,0.988,0.817,1.483,1.225c0.685,0.564,1.37,1.127,2.055,1.688
			c0.544,0.445,1.09,0.89,1.634,1.334c0.646,0.525,1.291,1.051,1.938,1.575c0.629,0.508,1.257,1.013,1.885,1.519
			c0.576,0.464,1.151,0.927,1.728,1.388c0.82,0.656,1.641,1.308,2.462,1.96c0.402,0.319,0.803,0.64,1.206,0.958
			c1.195,0.946,2.394,1.887,3.594,2.826c0.453,0.354,0.909,0.706,1.362,1.059c0.822,0.639,1.645,1.279,2.47,1.916
			c0.421,0.326,0.844,0.649,1.267,0.974c0.86,0.661,1.721,1.322,2.582,1.979c0.424,0.323,0.848,0.645,1.271,0.967
			c0.871,0.661,1.743,1.32,2.615,1.977c0.397,0.3,0.795,0.599,1.194,0.898c0.973,0.73,1.949,1.458,2.926,2.185
			c0.289,0.215,0.576,0.43,0.865,0.644c0.984,0.729,1.971,1.458,2.96,2.183c2.964,2.176,5.941,4.331,8.935,6.467
			c0.139,0.099,0.279,0.198,0.418,0.297c1.199,0.855,2.402,1.706,3.607,2.555c0.169,0.119,0.338,0.237,0.509,0.357
			c1.202,0.845,2.407,1.687,3.615,2.526c0.135,0.094,0.27,0.189,0.407,0.283c55.242,38.33,115.289,69.682,179.035,92.32
			c23.678,8.409,47.82,15.506,72.296,21.182c20.873,4.848,41.985,8.66,63.262,11.355c3.082,0.392,6.167,0.76,9.256,1.106
			c206.619,22.975,429.923,14.576,626.17-62.096c58.53-22.864,114.656-51.798,167.213-87.783
			C1996.013,1563.882,2090.887,1009.367,1824.08,643.966z M1032.869,372.942c0.018,1.516-0.011,3.013-0.08,4.492
			c-0.175-3.322-0.364-6.831-0.325-10.276C1032.69,369.088,1032.845,371.017,1032.869,372.942z"/>
	</g>
	<path style="fill:#E41F16;" d="M1508.351,675.245c-3.643-3.506-9.247,1.477-11.365,6.068
		c-17.774,38.534-1.747,84.099,19.748,120.688c14.464,24.62,32.123,48.456,56.759,62.892c15.231,8.925,37.401,12.633,48.496-1.097
		c6.037-7.469,6.729-17.834,6.491-27.434c-0.55-22.154-4.668-44.216-12.147-65.076c32.262,22.387,79.067,31.977,116.951,39.165
		c31.381,5.954,71.367,5.148,86.031-23.228c12.971-25.101-3.149-55.255-21.392-76.83c-28.628-33.855-63.886-62.082-103.187-82.606
		c5.211,1.135,10.422,2.272,15.632,3.408c8.109-8.575-1.215-22.19-10.545-29.416c-23.637-18.309-50.66-32.203-79.254-40.927
		c-42.768,22.01-87.182,41.127-132.896,56.212C1487.766,637.935,1496.888,657.798,1508.351,675.245z"/>
	<path style="fill:#E41F16;" d="M1381.852,808.933c-20.053-11.987-42.856-18.096-66.203-20.723
		c30.884,28.367,70.96,45.036,111.356,59.066C1413.166,833.04,1398.855,819.096,1381.852,808.933z"/>
	<path style="fill:#E41F16;" d="M1359.644,855.977c-56.541-14.79-109.765-31.741-157.805-57.657
		c-22.23,7.091-43.002,17.782-60.644,33.107c-57.029,49.541-90.022,185.764-66.668,258.344
		c23.608,73.369,84.241-13.424,163.05,27.048c33.995,17.459,79.956,32.527,106.419,4.962c14.631-15.24,16.884-38.243,17.5-59.36
		c27.502,18.465,56.017,37.354,88.589,43.384c32.571,6.03,70.556-4.204,87.28-32.797c15.994-27.344,8.412-62.472-5.102-91.122
		c-21.849-46.316-57.12-84.607-92.701-121.603C1414.854,869.182,1385.806,862.821,1359.644,855.977z"/>
	<path style="fill:#E41F16;" d="M907.219,877.383c-36.191-49.244-108.05-77.234-160.676-46.165
		c-19.642,11.595-34.451,29.783-47.633,48.398c-26.028,36.754-168.888,336.707-16.391,319.047
		c17.944-2.078,31.952-15.915,44.441-28.966c8.845,33.067,21.843,65.021,38.589,94.875c12.881,22.964,30.053,46.239,55.423,53.284
		c32.45,9.012,66.145-12.196,87.197-38.484c49.7-62.064,53.002-148.594,47.89-227.941
		C952.131,990.444,943.41,926.626,907.219,877.383z"/>
	<path style="fill:#E41F16;" d="M500.231,857.404c-8.794-28.6,2.855-59.058,14.324-86.694c8.938-21.538,17.9-43.127,29.197-63.526
		c2.576-4.652,5.279-9.231,8.1-13.734c-57.426,5.873-116.414,89.571-148.235,163.839c-16.737,39.06-25.957,75.51-23.485,96.657
		c2.076,17.756,8.617,37.204,24.701,45.033c19.535,9.497,187.127-189.314,201.33-264.217
		c-27.424,27.828-51.022,58.332-69.367,88.207C527.739,837.719,517.31,854.584,500.231,857.404z"/>
	<path style="fill:#B62216;" d="M1821.172,1622.452C1256.68,1901.083,283.305,1707.915,154.259,1055.3
		c-40.994,250.304,58.913,512.729,239.435,693.065c0.044,0.045,0.09,0.09,0.135,0.135c0.715,0.714,1.431,1.427,2.149,2.138
		c0.033,0.032,0.065,0.065,0.098,0.097c2.863,2.837,5.745,5.654,8.648,8.449c0.176,0.169,0.351,0.337,0.526,0.506
		c0.591,0.568,1.184,1.137,1.776,1.703c0.245,0.234,0.489,0.467,0.733,0.699c0.575,0.548,1.15,1.096,1.727,1.643
		c0.235,0.223,0.47,0.444,0.706,0.667c1.181,1.118,2.365,2.232,3.553,3.342c0.172,0.161,0.343,0.323,0.515,0.484
		c0.436,0.407,0.873,0.812,1.311,1.218c0.426,0.397,0.852,0.794,1.281,1.19c0.415,0.385,0.832,0.769,1.247,1.152
		c0.485,0.447,0.971,0.893,1.457,1.339c0.381,0.35,0.764,0.7,1.146,1.05c0.525,0.48,1.051,0.959,1.577,1.438
		c0.338,0.308,0.677,0.617,1.016,0.925c0.867,0.785,1.734,1.569,2.604,2.351c0.046,0.042,0.094,0.084,0.14,0.125
		c0.949,0.854,1.901,1.704,2.855,2.553c0.206,0.184,0.413,0.368,0.62,0.551c0.908,0.808,1.819,1.613,2.73,2.416
		c0.21,0.185,0.419,0.369,0.629,0.553c0.934,0.821,1.87,1.642,2.808,2.458c0.135,0.117,0.27,0.234,0.406,0.352
		c3.013,2.62,6.045,5.219,9.095,7.795c1.017,0.859,2.035,1.715,3.056,2.569c0.351,0.293,0.7,0.588,1.052,0.88
		c0.73,0.609,1.462,1.217,2.195,1.823c0.494,0.409,0.988,0.817,1.483,1.225c0.685,0.564,1.37,1.127,2.055,1.688
		c0.544,0.445,1.09,0.89,1.634,1.334c0.646,0.525,1.291,1.051,1.938,1.575c0.629,0.508,1.257,1.013,1.885,1.519
		c0.576,0.464,1.151,0.927,1.728,1.388c0.82,0.656,1.641,1.308,2.462,1.96c0.402,0.319,0.803,0.64,1.206,0.958
		c1.195,0.946,2.394,1.887,3.594,2.826c0.453,0.354,0.909,0.706,1.362,1.059c0.822,0.639,1.645,1.279,2.47,1.916
		c0.421,0.326,0.844,0.649,1.267,0.974c0.86,0.661,1.721,1.322,2.582,1.979c0.424,0.323,0.848,0.645,1.271,0.967
		c0.871,0.661,1.743,1.32,2.615,1.977c0.397,0.3,0.795,0.599,1.194,0.898c0.973,0.73,1.949,1.458,2.926,2.185
		c0.289,0.215,0.576,0.43,0.865,0.644c0.984,0.729,1.971,1.458,2.96,2.183c2.964,2.176,5.941,4.331,8.935,6.467
		c0.139,0.099,0.279,0.198,0.418,0.297c1.199,0.855,2.402,1.706,3.607,2.555c0.169,0.119,0.338,0.237,0.509,0.357
		c1.202,0.845,2.407,1.687,3.615,2.526c0.135,0.094,0.27,0.189,0.407,0.283c55.242,38.33,115.289,69.682,179.035,92.32
		c23.678,8.409,47.82,15.506,72.296,21.182c20.873,4.841,41.987,8.65,63.262,11.355c3.082,0.392,6.167,0.76,9.256,1.106
		c206.619,22.975,429.923,14.576,626.17-62.096c58.523-22.865,114.641-51.801,167.192-87.788
		C1702.067,1765.107,1768.197,1698.123,1821.172,1622.452z"/>
	<path style="fill:#E41F16;" d="M1711.959,1109.389c-20.27,11.096-44.424,11.535-67.012,16.486
		c-109.709,24.062-164.626,128.437-190.948,234.105c-9.748,39.131-15.574,78.438-18.808,113.911
		c-4.961,54.393,0.32,115.893,40.883,152.47c20.799,18.755,48.542,28.353,76.323,31.938
		c156.086,20.141,261.881-111.019,312.639-242.598c25.139-65.166,111.642-419.991-50.193-395.612
		C1769.021,1026.991,1752.605,1087.139,1711.959,1109.389z"/>
	<path style="fill:#891803;" d="M1658.804,537.849c3.644-2.88,7.113-5.972,10.34-9.342c3.387-3.539,6.485-7.438,9.156-11.599
		c7.131-11.11,11.223-24.089,9.661-37.074c-0.596-4.956-33.863,5.272-56.072,12.474c-8.878,2.879-15.99,5.274-18.541,6.023
		c-11.76,3.45-23.428,6.998-35.12,10.395c-10.386-2.192-20.903-3.857-31.497-4.965c-73.245-7.657-148.44-2.672-218.166-9.507
		c16.621-17.646,34.821-38.868,37.973-42.534c11.305-13.15,22.147-26.722,32.283-40.766c25.277-35.025,46.147-72.991,58.745-114.688
		c4.329-14.331,31.947-116.225,1.98-114.599c-2.871,0.157-5.104,2.469-6.94,4.682c-14.461,17.422-23.882,38.35-34.668,58.255
		c-28.514,52.614-72.039,110.236-125.258,147.366c-25.04,17.47-52.226,30.404-81.006,36.145c-15.887,3.17-31.936,4.849-48.002,5.174
		c-1.818-1.534-3.625-3.103-5.418-4.711c-3.035-2.724-6.252-5.238-9.619-7.546c0.567-2.728,1.376-5.374,2.866-7.707
		c2.676-4.188,7.191-6.802,10.602-10.418c5.29-5.609,7.608-13.23,10.971-20.215c0.961-1.997,2.009-3.942,3.234-5.772
		c4.664-6.964,11.671-11.939,17.772-17.685c16.743-15.766,31.955-40.139,18.278-62.035
		c-27.587-44.161-71.143-89.678-120.025-110.225c-48.997-20.595-54.17,64.257-51.54,90.05c0.251,2.466,0.553,4.953,0.857,7.449
		c-0.531,0.773-0.741,1.742-0.369,2.8c0.411,1.17,0.778,2.317,1.107,3.444c1.228,11.107,1.742,22.215-2.56,32.332
		c-2.463,5.792-6.419,10.952-8.293,16.935c-0.71,1.111-1.441,2.235-2.189,3.375c-6.589,10.05-8.992,16.258-8.491,28.15
		c0.245,5.807,0.667,11.181,0.912,16.323c0.247,5.175,0.313,10.114-0.163,15.02c-8.581-3.831-17.024-7.977-25.303-12.415
		c-31.027-16.634-59.731-37.352-84.665-60.797c-26.195-24.631-54.437-57.056-72.612-88.114c-3.375-5.768-6.44-11.712-9.502-17.653
		l-36.504-70.815c-2.298-4.459-4.997-9.286-9.704-11.022c-6.078-2.242-13.022,1.992-15.997,7.747
		c-2.976,5.754-2.964,12.54-2.747,19.016c2.509,74.626,23.762,148.551,61.272,213.115c6.371,10.968,13.846,22.809,22.472,33.745
		c10.987,13.929,23.84,26.387,38.661,33.695c-32.128-9.008-66.315-7.926-98.057-18.479c-0.802-0.267-1.605-0.54-2.405-0.822
		c-27.699-9.774-54.999-21.482-81.341-34.473c-56.409-27.819-105.909-67.069-148.903-112.843c-4.25-4.523-8.602-9.24-14.291-11.719
		c-5.69-2.479-13.151-2.076-17.161,2.661c-4.56,5.388-2.902,13.49-0.83,20.238c18.181,59.238,49.257,114.396,90.282,160.817
		c8.621,9.755,18.387,19.013,28.692,27.745c12.214,10.351,25.184,19.963,37.908,28.784c5.107,3.541,12.125,8.447,20.033,13.469
		c-5.094,3.817-11.67,7.589-19.482,11.152c-44.105,20.12-87.334,40.592-128.617,65.41
		c-80.131,48.172-152.748,106.927-214.617,174.092c2.108,7.379,14.181,5.311,21.208,1.244
		c28.568-16.534,52.365-39.032,78.561-58.603c46.146-34.475,99.624-59.671,155.961-77.606
		c-15.895,16.084-30.057,33.863-42.061,53.027c-2.821,4.503-5.524,9.082-8.1,13.734c-11.297,20.399-20.259,41.989-29.197,63.526
		c-11.469,27.635-23.118,58.094-14.324,86.694c17.079-2.82,27.508-19.685,36.565-34.435c18.345-29.875,41.943-60.379,69.367-88.207
		c34.792-35.303,75.744-66.296,119.948-86.226c-2.832,15.661-18.8,32.848-28.553,42.622
		c-58.488,58.623-105.865,126.459-140.238,199.416c-37.854,80.341-82.276,165.664-61.748,255.158
		c2.386,10.401,11.126,23.446,21.712,19.159c11.56-4.682,32.429-110.058,38.861-126.341c17.888-45.295,39.693-89.284,65.12-131.427
		c42.168-69.887,99.972-170.211,189.868-193.601c45.038-11.6,78.32-2.805,103.086,19.432c58.458,52.487,69.472,179.86,75.645,290.69
		c-0.196,0.946-0.394,1.885-0.591,2.817c-1.261,5.947-1.857,13.472,1.699,17.691c3.366,63.649,5.978,119.631,16.456,149.445
		c5.003,14.236,21.086,31.207,33.699,21.745c-1.432-71.207-2.866-142.418-4.299-213.639c18.597-31.8,29.061-71.576,37.897-102.839
		c9.095-32.181,14.92-65.293,17.315-98.65c0.568-7.906,2.374-22.496,3.445-38.052c5.829-3.978,12.212-7.663,19.204-11.02
		c4-1.919,8.127-3.699,12.364-5.342c23.124,21.034,48.158,38.154,74.785,52.519c48.04,25.916,101.264,42.867,157.805,57.657
		c26.162,6.843,55.21,13.205,79.918,4.305c3.717-1.34,7.339-3.021,10.834-5.101c-7.766-2.58-15.584-5.194-23.39-7.905
		c-40.396-14.03-80.472-30.699-111.356-59.066c-3.571-3.28-7.023-6.714-10.335-10.322c-12.268-13.364-22.15-28.56-31.746-44
		c35.089,5.102,68.422,15.098,94.937,28.699c110.072,56.459,157.131,162.008,232.98,247.895c6.974,7.898,5.051-33.082,4.404-35.772
		c-5.312-22.07-22.373-46.001-33.998-65.772c-25.191-42.845-55.254-83.273-89.606-120.359
		c-36.75-39.676-96.109-90.638-103.52-144.169c9.164-1.563,18.298-3.308,27.391-5.234c27.571-5.838,54.766-13.285,81.515-22.111
		c45.715-15.085,90.128-34.202,132.896-56.212c1.395-0.719,2.789-1.439,4.181-2.163c8.514-4.431,17.046-9.031,25.043-14.334
		c21.036,7.119,41.197,16.406,59.918,27.753C1694.186,559.003,1677.065,547.521,1658.804,537.849z"/>
	<path style="fill:#3E8834;" d="M1687.96,479.834c-0.596-4.956-33.863,5.272-56.072,12.474c-8.878,2.879-15.99,5.274-18.541,6.023
		c-11.76,3.45-23.428,6.998-35.12,10.395c-20.13,5.849-40.328,11.248-61.175,14.913c-71.59,12.588-145.666,11.123-216.638-4.658
		c3.11,0.692,15.148-10.924,28.15-24.728c16.621-17.646,34.821-38.868,37.973-42.534c11.305-13.15,22.147-26.722,32.283-40.766
		c25.277-35.025,46.147-72.991,58.745-114.688c4.329-14.331,31.947-116.225,1.98-114.599c-2.871,0.157-5.104,2.469-6.94,4.682
		c-14.461,17.422-23.882,38.35-34.668,58.255c-28.514,52.614-72.039,110.236-125.258,147.366
		c-25.04,17.47-52.226,30.404-81.006,36.145c-15.887,3.17-31.936,4.849-48.002,5.174c-5.721,0.116-11.446,0.058-17.165-0.165
		c0.448-2.257,0.857-4.522,1.219-6.797c0.28-1.758,0.544-3.543,0.908-5.296c0.567-2.728,1.376-5.374,2.866-7.707
		c2.676-4.188,7.191-6.802,10.602-10.418c5.29-5.609,7.608-13.23,10.971-20.215c0.961-1.997,2.009-3.942,3.234-5.772
		c4.664-6.964,11.671-11.939,17.772-17.685c16.743-15.766,31.955-40.139,18.278-62.035
		c-27.587-44.161-71.143-89.678-120.025-110.225c-48.997-20.595-54.17,64.257-51.54,90.05c0.251,2.466,0.553,4.953,0.857,7.449
		c-0.531,0.773-0.741,1.742-0.369,2.8c0.411,1.17,0.778,2.317,1.107,3.444c1.228,11.107,1.742,22.215-2.56,32.332
		c-2.463,5.792-6.419,10.952-8.293,16.935c-0.71,1.111-1.441,2.235-2.189,3.375c-6.589,10.05-8.992,16.258-8.491,28.15
		c0.245,5.807,0.667,11.181,0.912,16.323c0.247,5.175,0.313,10.114-0.163,15.02c-8.581-3.831-17.024-7.977-25.303-12.415
		c-31.027-16.634-59.731-37.352-84.665-60.797c-26.195-24.631-54.437-57.056-72.612-88.114c-3.375-5.768-6.44-11.712-9.502-17.653
		l-36.504-70.815c-2.298-4.459-4.997-9.286-9.704-11.022c-6.078-2.242-13.022,1.992-15.997,7.747
		c-2.976,5.754-2.964,12.54-2.747,19.016c2.509,74.626,23.762,148.551,61.272,213.115c6.371,10.968,13.846,22.809,22.472,33.745
		c10.987,13.929,23.84,26.387,38.661,33.695c-32.128-9.008-66.315-7.926-98.057-18.479c-0.802-0.267-1.605-0.54-2.405-0.822
		c-27.699-9.774-54.999-21.482-81.341-34.473c-56.409-27.819-105.909-67.069-148.903-112.843c-4.25-4.523-8.602-9.24-14.291-11.719
		c-5.69-2.479-13.151-2.076-17.161,2.661c-4.56,5.388-2.902,13.49-0.83,20.238c18.181,59.238,49.257,114.396,90.282,160.817
		c8.621,9.755,18.387,19.013,28.692,27.745c12.214,10.351,25.184,19.963,37.908,28.784c5.107,3.541,12.125,8.447,20.033,13.469
		c18.176,11.541,41.06,23.69,56.294,21.256c-49.422,7.896-111.374,47.431-148.261,80.19c-5.161,4.583-10.17,9.335-15.019,14.243
		c-15.895,16.084-30.057,33.863-42.061,53.027c-2.821,4.503-5.524,9.082-8.1,13.734c-11.297,20.399-20.259,41.989-29.197,63.526
		c-11.469,27.635-23.118,58.094-14.324,86.694c17.079-2.82,27.508-19.685,36.565-34.435c18.345-29.875,41.943-60.379,69.367-88.207
		c34.792-35.303,75.744-66.296,119.948-86.226c44.013-19.844,91.25-28.722,138.839-19.965
		c164.436,30.259,150.799,270.313,124.914,395.073c-0.196,0.946-0.394,1.885-0.591,2.817c-1.261,5.947-1.857,13.472,1.699,17.691
		c0.767,0.912,1.729,1.669,2.92,2.224c18.065-9.812,31.925-25.845,42.936-44.672c18.597-31.8,29.061-71.576,37.897-102.839
		c9.095-32.181,14.92-65.293,17.315-98.65c0.568-7.906,2.374-22.496,3.445-38.052c1.546-22.456,1.559-46.919-5.906-56.175
		c11.837,14.674,24.348,27.874,37.475,39.813c23.124,21.034,48.158,38.154,74.785,52.519
		c48.04,25.916,101.264,42.867,157.805,57.657c26.162,6.843,55.21,13.205,79.918,4.305c3.717-1.34,7.339-3.021,10.834-5.101
		c-7.766-2.58-15.584-5.194-23.39-7.905c-40.396-14.03-80.472-30.699-111.356-59.066c-3.571-3.28-7.023-6.714-10.335-10.322
		c-12.268-13.364-22.15-28.56-31.746-44c-8.051-12.955-15.901-26.081-24.79-38.438c-14.932-20.759-32.99-40.464-53.873-55.341
		c26.725,19.039,62.846,14.095,94.071,13.265c30.1-0.8,60.111-3.905,89.79-8.964c9.164-1.563,18.298-3.308,27.391-5.234
		c27.571-5.838,54.766-13.285,81.515-22.111c45.715-15.085,90.128-34.202,132.896-56.212c1.395-0.719,2.789-1.439,4.181-2.163
		c8.514-4.431,17.046-9.031,25.043-14.334c3.095-2.053,6.11-4.212,9.012-6.505c3.644-2.88,7.113-5.972,10.34-9.342
		c3.387-3.539,6.485-7.438,9.156-11.599C1685.43,505.798,1689.522,492.819,1687.96,479.834z"/>
	<path style="fill:#235C29;" d="M1096.209,295.624c22.774,22.337,49.669,44.785,81.565,45.315
		c8.874,0.148,18.408-1.808,24.493-8.269c6.504-6.907,7.575-17.63,4.942-26.744c-2.633-9.114-8.413-16.957-14.358-24.35
		c-23.259-28.922-65.94-82.096-108.421-78.951C1028.151,206.791,1077.511,277.284,1096.209,295.624z"/>
	<path style="fill:#235C29;" d="M1021.601,402.854c-0.532,5.5-1.749,10.96-4.158,16.664c-1.425,3.376-3.268,6.836-5.636,10.443
		c-9.183,13.982-22.029,23.906-29.073,39.376c-19.669,43.196,5.88,100.134,54.51,107.227c3.279,0.478,6.261-4.362,2.524-5.984
		c-34.799-15.108-60.873-45.115-49.997-85.6c5.818-21.661,23.476-36.19,34.176-55.036c2.47-4.351,4.57-8.931,6.067-13.883
		c0.39-1.289,0.732-2.566,1.034-3.835c0.394-1.646,0.716-3.278,0.982-4.902c1.106-6.773,1.201-13.424,1.081-20.49
		c-0.021-1.234-0.047-2.48-0.078-3.743c-0.043-1.785-0.14-3.689-0.244-5.658c-0.175-3.322-0.364-6.831-0.325-10.276
		c0.054-4.644,0.521-9.171,2.008-12.963c2.308-5.891,8.828-11.139,12.002-16.608c9.819-16.908,8.843-35.685,1.43-53.105
		c-1.16-2.727-4.845-2.057-6.256-0.007c-0.531,0.773-0.741,1.742-0.369,2.8c0.411,1.17,0.778,2.317,1.107,3.444
		c5.742,19.601-0.418,32.959-10.854,49.267c-0.71,1.111-1.441,2.235-2.189,3.375c-6.589,10.05-8.992,16.258-8.491,28.15
		c0.245,5.807,0.667,11.181,0.912,16.323C1022.011,393.009,1022.077,397.949,1021.601,402.854z"/>
	<path style="fill:#64902E;" d="M1101.404,549.32c-10.288,12.072-21.062,25.627-21.107,41.488
		c-0.056,19.334,15.66,34.668,30.672,46.852c6.683,5.425,13.802,10.887,22.236,12.612c8.435,1.724,18.519-1.494,21.921-9.401
		c5.481-12.737-8.43-29.207-0.223-40.383c36.713,24.953,84.599,32.735,127.323,20.688c12.036-3.393,24.379-8.855,31.149-19.369
		c6.772-10.514,5.104-27.093-6.086-32.676c-11.127-5.552-26.761,1.214-35.828-7.296c-6.138-5.762-5.601-16.07-1.354-23.339
		c4.247-7.268,11.291-12.365,17.738-17.78c9.912-8.324,18.733-17.792,26.639-28.021c10.935-14.146,20.12-29.751,27.993-45.828
		c2.471-5.043,4.879-10.706,3.35-16.11c-2.047-7.227-10.598-10.897-18.076-10.185c-7.476,0.712-14.191,4.647-20.864,8.095
		c-28.174,14.555-60.148,21.678-91.836,20.457c-10.963-0.422-22.259-2.026-32.734-1.677c-13.748,0.458-26.078,4.284-34.372,18.57
		c-7.081,12.199-8.475,27.51-15.179,40.203C1124.469,521.926,1112.873,535.863,1101.404,549.32z"/>
	<path style="fill:#64902E;" d="M961.755,466.507c1.851-0.183,3.568-0.662,5.117-1.483c0.518-0.274,1.156-0.924,1.879-1.861
		c5.482-7.094,16.006-30.885,18.535-36.943c5.69-13.633,7.461-14.902-5.374-24.662c-4.025-3.061-8.822-5.492-13.95-7.63
		c-10.983-4.576-23.491-7.8-33.213-12.95c-16.294-8.631-31.661-19.021-45.726-30.947c-5.798-4.917-11.439-10.136-18.113-13.767
		c-5.022-2.733-10.561-4.511-16.235-5.212c-1.743-0.215-3.59-0.315-5.181,0.43c-4.344,2.033-3.895,8.295-2.573,12.906
		c6.714,23.418,18.36,45.325,33.646,64.274c3.481,4.315,7.151,8.477,10.994,12.468C902.287,432.269,940.745,468.58,961.755,466.507z
		"/>
	<path style="fill:#64902E;" d="M957.953,534.579c-18.591-17.38-97.757-56.59-80.137,5.524c-15.627,1.103-31.106,4.28-45.902,9.422
		c-8.566,2.977-17.103,6.738-23.638,13.026c-6.535,6.287-10.794,15.542-9.127,24.461c5.923,31.644,61.134,13.754,80.66,15.487
		c24.273,2.154,48.916,17.246,68.648,35.827c11.189,10.536,20.799,22.194,27.868,33.251c22.612,35.371,31.059,78.87,56.675,112.13
		c21.325-20.274,23.874-54.533,13.989-82.246c-9.884-27.714-29.889-50.44-49.445-72.424c0.155,0.173,5.85-23.61,5.569-26.877
		c-0.803-9.316-3.905-13.682-8.213-21.111C985.527,564.885,971.702,547.431,957.953,534.579z"/>
	<path style="fill:#64902E;" d="M1227.06,779.422c3.286,3.855,7.266,7.736,11.626,10.424c4.896,3.018,10.275,4.534,15.699,2.818
		c3.041-0.962,5.591-2.883,7.566-5.348c2.825-3.525,4.479-8.165,4.715-12.721c0.402-7.741-2.497-15.259-5.83-22.259
		c-2.476-5.202-6.358-13.16-11.231-21.141c-11.049-18.096-27.197-36.313-43.645-22.81c-7.515,6.171-9.407,14.087-8.074,22.504
		C1200.722,748.807,1218.167,768.992,1227.06,779.422z"/>
	<path style="fill:#64902E;" d="M713.006,507.323c3.945,1.858,7.973,3.445,12.078,4.561c5.198,1.414,10.521,2.072,15.958,1.57
		c32.527-3,25.594-19.802,8.318-36.376c-9.033-8.665-20.891-17.268-31.417-23.805c-13.178-8.184-24.266-13.128-25.101-10.899
		c2.712-7.233,0.206-15.593-4.47-21.742c-4.675-6.148-11.246-10.529-17.688-14.79c-17.862-11.815-35.723-23.631-53.585-35.446
		c-6.796-4.496-15.325-9.141-22.618-5.503c-5.91,2.947-8.268,10.539-7.124,17.042c1.145,6.503,5.018,12.155,8.897,17.498
		c19.779,27.248,41.335,53.148,66.731,74.646c5.68,4.808,11.552,9.395,17.64,13.729c0.073,0.052,0.146,0.105,0.22,0.158
		c4.961,3.524,10.064,6.88,15.324,10.048C701.594,501.28,707.211,504.594,713.006,507.323z"/>
</g>
</svg>
